# xmcd CD database file
#
# Track frame offsets:
#	150
#	36443
#	62495
#	88045
#	113513
#	138981
#	164190
#	182217
#	196608
#	217582
#
# Disc length: 3248 seconds
#
# Revision: 0
# Processed by: cddbd v1.5.1PL2 Copyright (c) Steve Scherf et al.
# Submitted via: CDex 1.51
#
DISCID=840cae0a
DTITLE=Band Of Light - Total Union
DYEAR=1973
DGENRE=Blues
TTITLE0=My First Home
TTITLE1=Free Them From Hunger
TTITLE2=Spaces Of Time
TTITLE3=If
TTITLE4=Earthbound BLues
TTITLE5=Four Horsemen Of The Apocalypse
TTITLE6=Moonstruck
TTITLE7=The Destiny Song
TTITLE8=Over 'B'
TTITLE9=The Cat
EXTD=YEAR: 1973
EXTT0=
EXTT1=
EXTT2=
EXTT3=
EXTT4=
EXTT5=
EXTT6=
EXTT7=
EXTT8=
EXTT9=
PLAYORDER=
